<svg width="45" height="27" viewBox="0 0 45 27" fill="none" xmlns="http://www.w3.org/2000/svg">
<path d="M0.222 10V1.16H1.652C2.33667 2.05267 2.98667 2.99733 3.602 3.994C4.21733 4.982 4.77633 6.00033 5.279 7.049L5.162 4.41V1.16H6.657V10H5.227C4.67233 8.908 4.096 7.81167 3.498 6.711C2.90867 5.60167 2.28033 4.55733 1.613 3.578L1.717 6.62V10H0.222ZM13.724 10.065C13.3254 10.065 13.0047 9.974 12.762 9.792C12.528 9.61 12.3634 9.38467 12.268 9.116C11.8434 9.48867 11.4577 9.753 11.111 9.909C10.7644 10.0563 10.4177 10.13 10.071 10.13C9.50769 10.13 9.09169 9.948 8.82302 9.584C8.55436 9.22 8.42002 8.77367 8.42002 8.245C8.42002 7.88967 8.48502 7.57333 8.61502 7.296C8.74502 7.01867 8.96602 6.802 9.27802 6.646C9.59002 6.48133 10.0104 6.399 10.539 6.399C10.773 6.399 11.0287 6.41633 11.306 6.451C11.5834 6.477 11.865 6.51167 12.151 6.555V5.684C12.151 5.19867 12.0427 4.86933 11.826 4.696C11.618 4.514 11.3104 4.423 10.903 4.423C10.3484 4.423 9.72869 4.57467 9.04402 4.878L8.70602 3.994C9.10469 3.812 9.48602 3.67333 9.85002 3.578C10.214 3.48267 10.5824 3.435 10.955 3.435C11.5617 3.435 12.0254 3.53467 12.346 3.734C12.6667 3.93333 12.8877 4.19767 13.009 4.527C13.1304 4.85633 13.191 5.216 13.191 5.606V8.388C13.191 8.58733 13.23 8.75633 13.308 8.895C13.386 9.025 13.542 9.09 13.776 9.09H13.919V10.065H13.724ZM9.47302 8.232C9.47302 8.52667 9.54236 8.765 9.68102 8.947C9.81969 9.129 10.019 9.22 10.279 9.22C10.5044 9.22 10.7644 9.155 11.059 9.025C11.3537 8.88633 11.7177 8.61333 12.151 8.206V7.387C11.5617 7.29167 11.0417 7.244 10.591 7.244C10.1924 7.244 9.90636 7.32633 9.73302 7.491C9.55969 7.65567 9.47302 7.90267 9.47302 8.232ZM18.9652 9.766C18.4798 10.0087 17.9642 10.13 17.4182 10.13C16.9502 10.13 16.5818 10.0347 16.3132 9.844C16.0532 9.65333 15.8668 9.39767 15.7542 9.077C15.6502 8.75633 15.5982 8.401 15.5982 8.011V4.501H14.4802V3.565H15.5982V1.771H16.6642V3.565H18.7702V4.501H16.6642V7.972C16.6642 8.42267 16.7378 8.73467 16.8852 8.908C17.0412 9.07267 17.2795 9.155 17.6002 9.155C17.7562 9.155 17.9165 9.13767 18.0812 9.103C18.2545 9.05967 18.4408 8.99033 18.6402 8.895L18.9652 9.766ZM25.0736 10.065C24.675 10.065 24.3543 9.974 24.1116 9.792C23.8776 9.61 23.713 9.38467 23.6176 9.116C23.193 9.48867 22.8073 9.753 22.4606 9.909C22.114 10.0563 21.7673 10.13 21.4206 10.13C20.8573 10.13 20.4413 9.948 20.1726 9.584C19.904 9.22 19.7696 8.77367 19.7696 8.245C19.7696 7.88967 19.8346 7.57333 19.9646 7.296C20.0946 7.01867 20.3156 6.802 20.6276 6.646C20.9396 6.48133 21.36 6.399 21.8886 6.399C22.1226 6.399 22.3783 6.41633 22.6556 6.451C22.933 6.477 23.2146 6.51167 23.5006 6.555V5.684C23.5006 5.19867 23.3923 4.86933 23.1756 4.696C22.9676 4.514 22.66 4.423 22.2526 4.423C21.698 4.423 21.0783 4.57467 20.3936 4.878L20.0556 3.994C20.4543 3.812 20.8356 3.67333 21.1996 3.578C21.5636 3.48267 21.932 3.435 22.3046 3.435C22.9113 3.435 23.375 3.53467 23.6956 3.734C24.0163 3.93333 24.2373 4.19767 24.3586 4.527C24.48 4.85633 24.5406 5.216 24.5406 5.606V8.388C24.5406 8.58733 24.5796 8.75633 24.6576 8.895C24.7356 9.025 24.8916 9.09 25.1256 9.09H25.2686V10.065H25.0736ZM20.8226 8.232C20.8226 8.52667 20.892 8.765 21.0306 8.947C21.1693 9.129 21.3686 9.22 21.6286 9.22C21.854 9.22 22.114 9.155 22.4086 9.025C22.7033 8.88633 23.0673 8.61333 23.5006 8.206V7.387C22.9113 7.29167 22.3913 7.244 21.9406 7.244C21.542 7.244 21.256 7.32633 21.0826 7.491C20.9093 7.65567 20.8226 7.90267 20.8226 8.232ZM26.7658 8.44V0.38H27.8318V8.388C27.8318 8.622 27.8664 8.79967 27.9358 8.921C28.0138 9.03367 28.1654 9.09 28.3908 9.09H28.5988V10.065H28.2998C27.7278 10.065 27.3291 9.91333 27.1038 9.61C26.8784 9.30667 26.7658 8.91667 26.7658 8.44ZM31.3375 1.992H30.1415V0.796H31.3375V1.992ZM31.2725 10H30.2065V3.565H31.2725V10ZM38.2768 10.065C37.8781 10.065 37.5574 9.974 37.3148 9.792C37.0808 9.61 36.9161 9.38467 36.8208 9.116C36.3961 9.48867 36.0104 9.753 35.6638 9.909C35.3171 10.0563 34.9704 10.13 34.6238 10.13C34.0604 10.13 33.6444 9.948 33.3758 9.584C33.1071 9.22 32.9728 8.77367 32.9728 8.245C32.9728 7.88967 33.0378 7.57333 33.1678 7.296C33.2978 7.01867 33.5188 6.802 33.8308 6.646C34.1428 6.48133 34.5631 6.399 35.0918 6.399C35.3258 6.399 35.5814 6.41633 35.8588 6.451C36.1361 6.477 36.4178 6.51167 36.7038 6.555V5.684C36.7038 5.19867 36.5954 4.86933 36.3788 4.696C36.1708 4.514 35.8631 4.423 35.4558 4.423C34.9011 4.423 34.2814 4.57467 33.5968 4.878L33.2588 3.994C33.6574 3.812 34.0388 3.67333 34.4028 3.578C34.7668 3.48267 35.1351 3.435 35.5078 3.435C36.1144 3.435 36.5781 3.53467 36.8988 3.734C37.2194 3.93333 37.4404 4.19767 37.5618 4.527C37.6831 4.85633 37.7438 5.216 37.7438 5.606V8.388C37.7438 8.58733 37.7828 8.75633 37.8608 8.895C37.9388 9.025 38.0948 9.09 38.3288 9.09H38.4718V10.065H38.2768ZM34.0258 8.232C34.0258 8.52667 34.0951 8.765 34.2338 8.947C34.3724 9.129 34.5718 9.22 34.8318 9.22C35.0571 9.22 35.3171 9.155 35.6118 9.025C35.9064 8.88633 36.2704 8.61333 36.7038 8.206V7.387C36.1144 7.29167 35.5944 7.244 35.1438 7.244C34.7451 7.244 34.4591 7.32633 34.2858 7.491C34.1124 7.65567 34.0258 7.90267 34.0258 8.232ZM4.746 22.607H1.782V26H0.222V17.16H5.136V18.655H1.782V21.112H4.746V22.607ZM11.8035 22.386V23.166C11.8035 24.0847 11.5651 24.8083 11.0885 25.337C10.6205 25.8657 9.94881 26.13 9.07348 26.13C8.20681 26.13 7.53514 25.8657 7.05848 25.337C6.58181 24.8083 6.34348 24.0847 6.34348 23.166V22.386C6.34348 21.4847 6.57748 20.7697 7.04548 20.241C7.52214 19.7037 8.19814 19.435 9.07348 19.435C9.94881 19.435 10.6205 19.7037 11.0885 20.241C11.5651 20.7697 11.8035 21.4847 11.8035 22.386ZM10.6985 22.386C10.6985 21.7707 10.5598 21.2897 10.2825 20.943C10.0051 20.5877 9.60214 20.41 9.07348 20.41C8.55348 20.41 8.15048 20.5877 7.86448 20.943C7.58714 21.2897 7.44848 21.7707 7.44848 22.386V23.166C7.44848 23.8073 7.58714 24.3013 7.86448 24.648C8.15048 24.9947 8.55348 25.168 9.07348 25.168C9.60214 25.168 10.0051 24.9947 10.2825 24.648C10.5598 24.3013 10.6985 23.8073 10.6985 23.166V22.386ZM16.8347 20.436C16.592 20.436 16.306 20.4967 15.9767 20.618C15.656 20.7393 15.266 20.9863 14.8067 21.359V26H13.7407V19.565H14.7547V20.462C15.214 20.072 15.63 19.8033 16.0027 19.656C16.384 19.5087 16.748 19.435 17.0947 19.435C17.6927 19.435 18.1477 19.6257 18.4597 20.007C18.7803 20.3797 18.9407 20.9127 18.9407 21.606V26H17.8747V21.762C17.8747 20.878 17.528 20.436 16.8347 20.436ZM22.7404 25.181C23.6071 25.181 24.0404 24.8863 24.0404 24.297C24.0404 24.0457 23.9624 23.8463 23.8064 23.699C23.6504 23.5517 23.3644 23.426 22.9484 23.322L22.2334 23.14C21.7048 23.01 21.3104 22.7847 21.0504 22.464C20.7904 22.1347 20.6604 21.7447 20.6604 21.294C20.6604 20.9647 20.7341 20.6613 20.8814 20.384C21.0288 20.098 21.2628 19.8683 21.5834 19.695C21.9041 19.5217 22.3201 19.435 22.8314 19.435C23.1608 19.435 23.4944 19.474 23.8324 19.552C24.1791 19.6213 24.5301 19.7427 24.8854 19.916L24.5474 20.813C23.9148 20.527 23.3428 20.384 22.8314 20.384C22.0774 20.384 21.7004 20.6657 21.7004 21.229C21.7004 21.4457 21.7698 21.632 21.9084 21.788C22.0471 21.944 22.3071 22.0697 22.6884 22.165L23.4034 22.347C23.9754 22.4857 24.3958 22.711 24.6644 23.023C24.9331 23.335 25.0674 23.738 25.0674 24.232C25.0674 24.5873 24.9894 24.9123 24.8334 25.207C24.6861 25.493 24.4434 25.7183 24.1054 25.883C23.7761 26.0477 23.3298 26.13 22.7664 26.13C22.3938 26.13 22.0211 26.091 21.6484 26.013C21.2844 25.935 20.9074 25.8093 20.5174 25.636L20.8034 24.752C21.1761 24.8993 21.5141 25.0077 21.8174 25.077C22.1208 25.1463 22.4284 25.181 22.7404 25.181ZM31.4331 25.623C31.0431 25.8137 30.6531 25.9437 30.2631 26.013C29.8731 26.091 29.5134 26.13 29.1841 26.13C28.2567 26.13 27.5634 25.8657 27.1041 25.337C26.6534 24.8083 26.4281 24.0847 26.4281 23.166V22.386C26.4281 21.4933 26.6534 20.7783 27.1041 20.241C27.5634 19.7037 28.2091 19.435 29.0411 19.435C29.4831 19.435 29.8861 19.526 30.2501 19.708C30.6227 19.8813 30.9174 20.15 31.1341 20.514C31.3594 20.8693 31.4721 21.3287 31.4721 21.892C31.4721 22.256 31.4201 22.672 31.3161 23.14H27.4811V23.166C27.4811 23.8247 27.6154 24.323 27.8841 24.661C28.1614 24.999 28.6034 25.168 29.2101 25.168C29.4874 25.168 29.7907 25.1333 30.1201 25.064C30.4581 24.9947 30.7874 24.8863 31.1081 24.739L31.4331 25.623ZM29.0411 20.371C28.5384 20.371 28.1571 20.5357 27.8971 20.865C27.6457 21.1857 27.5071 21.6407 27.4811 22.23H30.3931C30.4191 22.074 30.4321 21.9267 30.4321 21.788C30.4321 21.3027 30.2934 20.9473 30.0161 20.722C29.7474 20.488 29.4224 20.371 29.0411 20.371ZM34.0709 22.399V23.166C34.0709 23.8247 34.1922 24.323 34.4349 24.661C34.6775 24.9903 35.0632 25.155 35.5919 25.155C36.1119 25.155 36.6709 25.0207 37.2689 24.752L37.5939 25.649C36.8832 25.9697 36.1942 26.13 35.5269 26.13C34.6949 26.13 34.0622 25.8657 33.6289 25.337C33.1955 24.8083 32.9789 24.0847 32.9789 23.166V22.399C32.9789 21.4803 33.1955 20.7567 33.6289 20.228C34.0622 19.6993 34.6949 19.435 35.5269 19.435C35.8389 19.435 36.1595 19.4783 36.4889 19.565C36.8269 19.643 37.1649 19.7557 37.5029 19.903L37.1779 20.813C36.8919 20.6917 36.6145 20.5963 36.3459 20.527C36.0859 20.4577 35.8345 20.423 35.5919 20.423C35.0632 20.423 34.6775 20.592 34.4349 20.93C34.1922 21.2593 34.0709 21.749 34.0709 22.399ZM43.8627 26.065C43.464 26.065 43.1434 25.974 42.9007 25.792C42.6667 25.61 42.502 25.3847 42.4067 25.116C41.982 25.4887 41.5964 25.753 41.2497 25.909C40.903 26.0563 40.5564 26.13 40.2097 26.13C39.6464 26.13 39.2304 25.948 38.9617 25.584C38.693 25.22 38.5587 24.7737 38.5587 24.245C38.5587 23.8897 38.6237 23.5733 38.7537 23.296C38.8837 23.0187 39.1047 22.802 39.4167 22.646C39.7287 22.4813 40.149 22.399 40.6777 22.399C40.9117 22.399 41.1674 22.4163 41.4447 22.451C41.722 22.477 42.0037 22.5117 42.2897 22.555V21.684C42.2897 21.1987 42.1814 20.8693 41.9647 20.696C41.7567 20.514 41.449 20.423 41.0417 20.423C40.487 20.423 39.8674 20.5747 39.1827 20.878L38.8447 19.994C39.2434 19.812 39.6247 19.6733 39.9887 19.578C40.3527 19.4827 40.721 19.435 41.0937 19.435C41.7004 19.435 42.164 19.5347 42.4847 19.734C42.8054 19.9333 43.0264 20.1977 43.1477 20.527C43.269 20.8563 43.3297 21.216 43.3297 21.606V24.388C43.3297 24.5873 43.3687 24.7563 43.4467 24.895C43.5247 25.025 43.6807 25.09 43.9147 25.09H44.0577V26.065H43.8627ZM39.6117 24.232C39.6117 24.5267 39.681 24.765 39.8197 24.947C39.9584 25.129 40.1577 25.22 40.4177 25.22C40.643 25.22 40.903 25.155 41.1977 25.025C41.4924 24.8863 41.8564 24.6133 42.2897 24.206V23.387C41.7004 23.2917 41.1804 23.244 40.7297 23.244C40.331 23.244 40.045 23.3263 39.8717 23.491C39.6984 23.6557 39.6117 23.9027 39.6117 24.232Z" fill="black"/>
</svg>
