<svg width="87" height="11" viewBox="0 0 87 11" fill="none" xmlns="http://www.w3.org/2000/svg">
<path d="M0.222 10V1.16H1.652C2.33667 2.05267 2.98667 2.99733 3.602 3.994C4.21733 4.982 4.77633 6.00033 5.279 7.049L5.162 4.41V1.16H6.657V10H5.227C4.67233 8.908 4.096 7.81167 3.498 6.711C2.90867 5.60167 2.28033 4.55733 1.613 3.578L1.717 6.62V10H0.222ZM13.724 10.065C13.3254 10.065 13.0047 9.974 12.762 9.792C12.528 9.61 12.3634 9.38467 12.268 9.116C11.8434 9.48867 11.4577 9.753 11.111 9.909C10.7644 10.0563 10.4177 10.13 10.071 10.13C9.50769 10.13 9.09169 9.948 8.82302 9.584C8.55436 9.22 8.42002 8.77367 8.42002 8.245C8.42002 7.88967 8.48502 7.57333 8.61502 7.296C8.74502 7.01867 8.96602 6.802 9.27802 6.646C9.59002 6.48133 10.0104 6.399 10.539 6.399C10.773 6.399 11.0287 6.41633 11.306 6.451C11.5834 6.477 11.865 6.51167 12.151 6.555V5.684C12.151 5.19867 12.0427 4.86933 11.826 4.696C11.618 4.514 11.3104 4.423 10.903 4.423C10.3484 4.423 9.72869 4.57467 9.04402 4.878L8.70602 3.994C9.10469 3.812 9.48602 3.67333 9.85002 3.578C10.214 3.48267 10.5824 3.435 10.955 3.435C11.5617 3.435 12.0254 3.53467 12.346 3.734C12.6667 3.93333 12.8877 4.19767 13.009 4.527C13.1304 4.85633 13.191 5.216 13.191 5.606V8.388C13.191 8.58733 13.23 8.75633 13.308 8.895C13.386 9.025 13.542 9.09 13.776 9.09H13.919V10.065H13.724ZM9.47302 8.232C9.47302 8.52667 9.54236 8.765 9.68102 8.947C9.81969 9.129 10.019 9.22 10.279 9.22C10.5044 9.22 10.7644 9.155 11.059 9.025C11.3537 8.88633 11.7177 8.61333 12.151 8.206V7.387C11.5617 7.29167 11.0417 7.244 10.591 7.244C10.1924 7.244 9.90636 7.32633 9.73302 7.491C9.55969 7.65567 9.47302 7.90267 9.47302 8.232ZM18.9652 9.766C18.4798 10.0087 17.9642 10.13 17.4182 10.13C16.9502 10.13 16.5818 10.0347 16.3132 9.844C16.0532 9.65333 15.8668 9.39767 15.7542 9.077C15.6502 8.75633 15.5982 8.401 15.5982 8.011V4.501H14.4802V3.565H15.5982V1.771H16.6642V3.565H18.7702V4.501H16.6642V7.972C16.6642 8.42267 16.7378 8.73467 16.8852 8.908C17.0412 9.07267 17.2795 9.155 17.6002 9.155C17.7562 9.155 17.9165 9.13767 18.0812 9.103C18.2545 9.05967 18.4408 8.99033 18.6402 8.895L18.9652 9.766ZM25.0736 10.065C24.675 10.065 24.3543 9.974 24.1116 9.792C23.8776 9.61 23.713 9.38467 23.6176 9.116C23.193 9.48867 22.8073 9.753 22.4606 9.909C22.114 10.0563 21.7673 10.13 21.4206 10.13C20.8573 10.13 20.4413 9.948 20.1726 9.584C19.904 9.22 19.7696 8.77367 19.7696 8.245C19.7696 7.88967 19.8346 7.57333 19.9646 7.296C20.0946 7.01867 20.3156 6.802 20.6276 6.646C20.9396 6.48133 21.36 6.399 21.8886 6.399C22.1226 6.399 22.3783 6.41633 22.6556 6.451C22.933 6.477 23.2146 6.51167 23.5006 6.555V5.684C23.5006 5.19867 23.3923 4.86933 23.1756 4.696C22.9676 4.514 22.66 4.423 22.2526 4.423C21.698 4.423 21.0783 4.57467 20.3936 4.878L20.0556 3.994C20.4543 3.812 20.8356 3.67333 21.1996 3.578C21.5636 3.48267 21.932 3.435 22.3046 3.435C22.9113 3.435 23.375 3.53467 23.6956 3.734C24.0163 3.93333 24.2373 4.19767 24.3586 4.527C24.48 4.85633 24.5406 5.216 24.5406 5.606V8.388C24.5406 8.58733 24.5796 8.75633 24.6576 8.895C24.7356 9.025 24.8916 9.09 25.1256 9.09H25.2686V10.065H25.0736ZM20.8226 8.232C20.8226 8.52667 20.892 8.765 21.0306 8.947C21.1693 9.129 21.3686 9.22 21.6286 9.22C21.854 9.22 22.114 9.155 22.4086 9.025C22.7033 8.88633 23.0673 8.61333 23.5006 8.206V7.387C22.9113 7.29167 22.3913 7.244 21.9406 7.244C21.542 7.244 21.256 7.32633 21.0826 7.491C20.9093 7.65567 20.8226 7.90267 20.8226 8.232ZM26.7658 8.44V0.38H27.8318V8.388C27.8318 8.622 27.8664 8.79967 27.9358 8.921C28.0138 9.03367 28.1654 9.09 28.3908 9.09H28.5988V10.065H28.2998C27.7278 10.065 27.3291 9.91333 27.1038 9.61C26.8784 9.30667 26.7658 8.91667 26.7658 8.44ZM31.3375 1.992H30.1415V0.796H31.3375V1.992ZM31.2725 10H30.2065V3.565H31.2725V10ZM38.2768 10.065C37.8781 10.065 37.5574 9.974 37.3148 9.792C37.0808 9.61 36.9161 9.38467 36.8208 9.116C36.3961 9.48867 36.0104 9.753 35.6638 9.909C35.3171 10.0563 34.9704 10.13 34.6238 10.13C34.0604 10.13 33.6444 9.948 33.3758 9.584C33.1071 9.22 32.9728 8.77367 32.9728 8.245C32.9728 7.88967 33.0378 7.57333 33.1678 7.296C33.2978 7.01867 33.5188 6.802 33.8308 6.646C34.1428 6.48133 34.5631 6.399 35.0918 6.399C35.3258 6.399 35.5814 6.41633 35.8588 6.451C36.1361 6.477 36.4178 6.51167 36.7038 6.555V5.684C36.7038 5.19867 36.5954 4.86933 36.3788 4.696C36.1708 4.514 35.8631 4.423 35.4558 4.423C34.9011 4.423 34.2814 4.57467 33.5968 4.878L33.2588 3.994C33.6574 3.812 34.0388 3.67333 34.4028 3.578C34.7668 3.48267 35.1351 3.435 35.5078 3.435C36.1144 3.435 36.5781 3.53467 36.8988 3.734C37.2194 3.93333 37.4404 4.19767 37.5618 4.527C37.6831 4.85633 37.7438 5.216 37.7438 5.606V8.388C37.7438 8.58733 37.7828 8.75633 37.8608 8.895C37.9388 9.025 38.0948 9.09 38.3288 9.09H38.4718V10.065H38.2768ZM34.0258 8.232C34.0258 8.52667 34.0951 8.765 34.2338 8.947C34.3724 9.129 34.5718 9.22 34.8318 9.22C35.0571 9.22 35.3171 9.155 35.6118 9.025C35.9064 8.88633 36.2704 8.61333 36.7038 8.206V7.387C36.1144 7.29167 35.5944 7.244 35.1438 7.244C34.7451 7.244 34.4591 7.32633 34.2858 7.491C34.1124 7.65567 34.0258 7.90267 34.0258 8.232ZM47.4149 6.607H44.4509V10H42.8909V1.16H47.8049V2.655H44.4509V5.112H47.4149V6.607ZM54.4724 6.386V7.166C54.4724 8.08467 54.2341 8.80833 53.7574 9.337C53.2894 9.86567 52.6178 10.13 51.7424 10.13C50.8758 10.13 50.2041 9.86567 49.7274 9.337C49.2508 8.80833 49.0124 8.08467 49.0124 7.166V6.386C49.0124 5.48467 49.2464 4.76967 49.7144 4.241C50.1911 3.70367 50.8671 3.435 51.7424 3.435C52.6178 3.435 53.2894 3.70367 53.7574 4.241C54.2341 4.76967 54.4724 5.48467 54.4724 6.386ZM53.3674 6.386C53.3674 5.77067 53.2288 5.28967 52.9514 4.943C52.6741 4.58767 52.2711 4.41 51.7424 4.41C51.2224 4.41 50.8194 4.58767 50.5334 4.943C50.2561 5.28967 50.1174 5.77067 50.1174 6.386V7.166C50.1174 7.80733 50.2561 8.30133 50.5334 8.648C50.8194 8.99467 51.2224 9.168 51.7424 9.168C52.2711 9.168 52.6741 8.99467 52.9514 8.648C53.2288 8.30133 53.3674 7.80733 53.3674 7.166V6.386ZM59.5036 4.436C59.261 4.436 58.975 4.49667 58.6456 4.618C58.325 4.73933 57.935 4.98633 57.4756 5.359V10H56.4096V3.565H57.4236V4.462C57.883 4.072 58.299 3.80333 58.6716 3.656C59.053 3.50867 59.417 3.435 59.7636 3.435C60.3616 3.435 60.8166 3.62567 61.1286 4.007C61.4493 4.37967 61.6096 4.91267 61.6096 5.606V10H60.5436V5.762C60.5436 4.878 60.197 4.436 59.5036 4.436ZM65.4094 9.181C66.276 9.181 66.7094 8.88633 66.7094 8.297C66.7094 8.04567 66.6314 7.84633 66.4754 7.699C66.3194 7.55167 66.0334 7.426 65.6174 7.322L64.9024 7.14C64.3737 7.01 63.9794 6.78467 63.7194 6.464C63.4594 6.13467 63.3294 5.74467 63.3294 5.294C63.3294 4.96467 63.403 4.66133 63.5504 4.384C63.6977 4.098 63.9317 3.86833 64.2524 3.695C64.573 3.52167 64.989 3.435 65.5004 3.435C65.8297 3.435 66.1634 3.474 66.5014 3.552C66.848 3.62133 67.199 3.74267 67.5544 3.916L67.2164 4.813C66.5837 4.527 66.0117 4.384 65.5004 4.384C64.7464 4.384 64.3694 4.66567 64.3694 5.229C64.3694 5.44567 64.4387 5.632 64.5774 5.788C64.716 5.944 64.976 6.06967 65.3574 6.165L66.0724 6.347C66.6444 6.48567 67.0647 6.711 67.3334 7.023C67.602 7.335 67.7364 7.738 67.7364 8.232C67.7364 8.58733 67.6584 8.91233 67.5024 9.207C67.355 9.493 67.1124 9.71833 66.7744 9.883C66.445 10.0477 65.9987 10.13 65.4354 10.13C65.0627 10.13 64.69 10.091 64.3174 10.013C63.9534 9.935 63.5764 9.80933 63.1864 9.636L63.4724 8.752C63.845 8.89933 64.183 9.00767 64.4864 9.077C64.7897 9.14633 65.0974 9.181 65.4094 9.181ZM74.102 9.623C73.712 9.81367 73.322 9.94367 72.932 10.013C72.542 10.091 72.1823 10.13 71.853 10.13C70.9257 10.13 70.2323 9.86567 69.773 9.337C69.3223 8.80833 69.097 8.08467 69.097 7.166V6.386C69.097 5.49333 69.3223 4.77833 69.773 4.241C70.2323 3.70367 70.878 3.435 71.71 3.435C72.152 3.435 72.555 3.526 72.919 3.708C73.2917 3.88133 73.5863 4.15 73.803 4.514C74.0283 4.86933 74.141 5.32867 74.141 5.892C74.141 6.256 74.089 6.672 73.985 7.14H70.15V7.166C70.15 7.82467 70.2843 8.323 70.553 8.661C70.8303 8.999 71.2723 9.168 71.879 9.168C72.1563 9.168 72.4597 9.13333 72.789 9.064C73.127 8.99467 73.4563 8.88633 73.777 8.739L74.102 9.623ZM71.71 4.371C71.2073 4.371 70.826 4.53567 70.566 4.865C70.3147 5.18567 70.176 5.64067 70.15 6.23H73.062C73.088 6.074 73.101 5.92667 73.101 5.788C73.101 5.30267 72.9623 4.94733 72.685 4.722C72.4163 4.488 72.0913 4.371 71.71 4.371ZM76.7398 6.399V7.166C76.7398 7.82467 76.8611 8.323 77.1038 8.661C77.3465 8.99033 77.7321 9.155 78.2608 9.155C78.7808 9.155 79.3398 9.02067 79.9378 8.752L80.2628 9.649C79.5521 9.96967 78.8631 10.13 78.1958 10.13C77.3638 10.13 76.7311 9.86567 76.2978 9.337C75.8645 8.80833 75.6478 8.08467 75.6478 7.166V6.399C75.6478 5.48033 75.8645 4.75667 76.2978 4.228C76.7311 3.69933 77.3638 3.435 78.1958 3.435C78.5078 3.435 78.8285 3.47833 79.1578 3.565C79.4958 3.643 79.8338 3.75567 80.1718 3.903L79.8468 4.813C79.5608 4.69167 79.2835 4.59633 79.0148 4.527C78.7548 4.45767 78.5035 4.423 78.2608 4.423C77.7321 4.423 77.3465 4.592 77.1038 4.93C76.8611 5.25933 76.7398 5.749 76.7398 6.399ZM86.5316 10.065C86.133 10.065 85.8123 9.974 85.5696 9.792C85.3356 9.61 85.171 9.38467 85.0756 9.116C84.651 9.48867 84.2653 9.753 83.9186 9.909C83.572 10.0563 83.2253 10.13 82.8786 10.13C82.3153 10.13 81.8993 9.948 81.6306 9.584C81.362 9.22 81.2276 8.77367 81.2276 8.245C81.2276 7.88967 81.2926 7.57333 81.4226 7.296C81.5526 7.01867 81.7736 6.802 82.0856 6.646C82.3976 6.48133 82.818 6.399 83.3466 6.399C83.5806 6.399 83.8363 6.41633 84.1136 6.451C84.391 6.477 84.6726 6.51167 84.9586 6.555V5.684C84.9586 5.19867 84.8503 4.86933 84.6336 4.696C84.4256 4.514 84.118 4.423 83.7106 4.423C83.156 4.423 82.5363 4.57467 81.8516 4.878L81.5136 3.994C81.9123 3.812 82.2936 3.67333 82.6576 3.578C83.0216 3.48267 83.39 3.435 83.7626 3.435C84.3693 3.435 84.833 3.53467 85.1536 3.734C85.4743 3.93333 85.6953 4.19767 85.8166 4.527C85.938 4.85633 85.9986 5.216 85.9986 5.606V8.388C85.9986 8.58733 86.0376 8.75633 86.1156 8.895C86.1936 9.025 86.3496 9.09 86.5836 9.09H86.7266V10.065H86.5316ZM82.2806 8.232C82.2806 8.52667 82.35 8.765 82.4886 8.947C82.6273 9.129 82.8266 9.22 83.0866 9.22C83.312 9.22 83.572 9.155 83.8666 9.025C84.1613 8.88633 84.5253 8.61333 84.9586 8.206V7.387C84.3693 7.29167 83.8493 7.244 83.3986 7.244C83 7.244 82.714 7.32633 82.5406 7.491C82.3673 7.65567 82.2806 7.90267 82.2806 8.232Z" fill="black"/>
</svg>
